<svg width="166" height="48" viewBox="0 0 166 48" fill="none" xmlns="http://www.w3.org/2000/svg">
<path d="M63.1 20.42C63.1133 20.54 63.0733 20.6467 62.98 20.74C62.8867 20.82 62.78 20.86 62.66 20.86H61.84C61.68 20.86 61.56 20.8333 61.48 20.78C61.4 20.7133 61.3133 20.5933 61.22 20.42C61.0067 20.0067 60.6333 19.6 60.1 19.2C59.58 18.8 58.8867 18.6 58.02 18.6C57.22 18.6 56.54 18.78 55.98 19.14C55.4333 19.5 55.16 20.0133 55.16 20.68C55.16 21.1333 55.2933 21.5067 55.56 21.8C55.84 22.08 56.2533 22.3267 56.8 22.54C57.36 22.74 58.2 22.9867 59.32 23.28C60.84 23.68 61.9133 24.1733 62.54 24.76C63.18 25.3333 63.5 26.12 63.5 27.12C63.5 27.92 63.2733 28.6267 62.82 29.24C62.38 29.8533 61.7533 30.3333 60.94 30.68C60.1267 31.0267 59.1867 31.2 58.12 31.2C57.1333 31.2 56.2333 31.0133 55.42 30.64C54.6067 30.2667 53.9667 29.7933 53.5 29.22C53.0333 28.6333 52.7867 28.0533 52.76 27.48C52.76 27.36 52.8 27.26 52.88 27.18C52.9733 27.0867 53.08 27.04 53.2 27.04H54.02C54.1667 27.04 54.2867 27.0733 54.38 27.14C54.4733 27.1933 54.56 27.3067 54.64 27.48C54.8533 27.96 55.24 28.4 55.8 28.8C56.3733 29.2 57.1467 29.4 58.12 29.4C59.0933 29.4 59.9133 29.1933 60.58 28.78C61.26 28.3533 61.6 27.8 61.6 27.12C61.6 26.68 61.42 26.3133 61.06 26.02C60.7133 25.7133 60.2333 25.46 59.62 25.26C59.0067 25.0467 58.1067 24.7867 56.92 24.48C55.6267 24.1467 54.6933 23.6667 54.12 23.04C53.5467 22.4 53.26 21.6133 53.26 20.68C53.26 19.9867 53.44 19.3467 53.8 18.76C54.16 18.1733 54.7 17.7 55.42 17.34C56.14 16.98 57.0067 16.8 58.02 16.8C59.0333 16.8 59.92 17 60.68 17.4C61.44 17.7867 62.0267 18.2667 62.44 18.84C62.8533 19.4133 63.0733 19.94 63.1 20.42ZM68.5833 27.5C68.5833 28.0733 68.6966 28.5133 68.9233 28.82C69.1633 29.1267 69.6099 29.28 70.2633 29.28H71.3233C71.4699 29.28 71.5966 29.3333 71.7033 29.44C71.8099 29.5467 71.8633 29.6733 71.8633 29.82V30.46C71.8633 30.6067 71.8099 30.7333 71.7033 30.84C71.5966 30.9467 71.4699 31 71.3233 31H70.0633C68.9299 31 68.0966 30.7067 67.5633 30.12C67.0299 29.52 66.7633 28.6467 66.7633 27.5V22.32H65.2833C65.1366 22.32 65.0099 22.2667 64.9033 22.16C64.7966 22.0533 64.7433 21.9267 64.7433 21.78V21.14C64.7433 20.9933 64.7966 20.8667 64.9033 20.76C65.0099 20.6533 65.1366 20.6 65.2833 20.6H66.7633V17.34C66.7633 17.1933 66.8166 17.0667 66.9233 16.96C67.0299 16.8533 67.1566 16.8 67.3033 16.8H68.0433C68.1899 16.8 68.3166 16.8533 68.4233 16.96C68.5299 17.0667 68.5833 17.1933 68.5833 17.34V20.6H71.1233C71.2699 20.6 71.3966 20.6533 71.5033 20.76C71.6099 20.8667 71.6633 20.9933 71.6633 21.14V21.78C71.6633 21.9267 71.6099 22.0533 71.5033 22.16C71.3966 22.2667 71.2699 22.32 71.1233 22.32H68.5833V27.5ZM82.8711 24.86C82.8978 25.1533 82.9111 25.4733 82.9111 25.82C82.9111 26.14 82.8978 26.4467 82.8711 26.74C82.7511 28.1 82.2778 29.1867 81.4511 30C80.6378 30.8 79.5311 31.2 78.1311 31.2C76.7311 31.2 75.6178 30.8 74.7911 30C73.9778 29.1867 73.5111 28.1 73.3911 26.74C73.3778 26.5933 73.3711 26.2867 73.3711 25.82C73.3711 25.3267 73.3778 25.0067 73.3911 24.86C73.4978 23.5 73.9644 22.42 74.7911 21.62C75.6178 20.8067 76.7311 20.4 78.1311 20.4C79.5311 20.4 80.6444 20.8067 81.4711 21.62C82.2978 22.42 82.7644 23.5 82.8711 24.86ZM81.0511 24.96C80.9711 24.1067 80.6844 23.42 80.1911 22.9C79.7111 22.38 79.0244 22.12 78.1311 22.12C77.2378 22.12 76.5444 22.38 76.0511 22.9C75.5711 23.42 75.2911 24.1067 75.2111 24.96C75.1978 25.12 75.1911 25.4067 75.1911 25.82C75.1911 26.22 75.1978 26.4933 75.2111 26.64C75.2911 27.4933 75.5711 28.18 76.0511 28.7C76.5444 29.22 77.2378 29.48 78.1311 29.48C79.0244 29.48 79.7111 29.22 80.1911 28.7C80.6844 28.18 80.9711 27.4933 81.0511 26.64C81.0778 26.3467 81.0911 26.0733 81.0911 25.82C81.0911 25.5667 81.0778 25.28 81.0511 24.96ZM90.6941 20.6C90.8407 20.6 90.9674 20.6533 91.0741 20.76C91.1807 20.8667 91.2341 20.9933 91.2341 21.14V21.78C91.2341 21.9267 91.1807 22.0533 91.0741 22.16C90.9674 22.2667 90.8407 22.32 90.6941 22.32H89.5341C88.7874 22.32 88.2141 22.52 87.8141 22.92C87.4274 23.3067 87.2341 23.8733 87.2341 24.62V30.46C87.2341 30.6067 87.1807 30.7333 87.0741 30.84C86.9674 30.9467 86.8407 31 86.6941 31H85.9541C85.8074 31 85.6807 30.9467 85.5741 30.84C85.4674 30.7333 85.4141 30.6067 85.4141 30.46V21.14C85.4141 20.9933 85.4674 20.8667 85.5741 20.76C85.6807 20.6533 85.8074 20.6 85.9541 20.6H86.6941C86.8407 20.6 86.9674 20.6533 87.0741 20.76C87.1807 20.8667 87.2341 20.9933 87.2341 21.14V21.76C87.5007 21.36 87.8207 21.0667 88.1941 20.88C88.5674 20.6933 89.0541 20.6 89.6541 20.6H90.6941ZM97.0727 20.4C98.4993 20.4 99.626 20.8533 100.453 21.76C101.279 22.6667 101.693 23.9 101.693 25.46V26C101.693 26.1467 101.639 26.2733 101.533 26.38C101.426 26.4867 101.299 26.54 101.153 26.54H94.2727V26.66C94.2993 27.54 94.566 28.2333 95.0727 28.74C95.5927 29.2333 96.2593 29.48 97.0727 29.48C97.7393 29.48 98.2527 29.3933 98.6127 29.22C98.986 29.0467 99.3193 28.8 99.6127 28.48C99.7193 28.3733 99.8127 28.3 99.8927 28.26C99.986 28.22 100.106 28.2 100.253 28.2H100.853C101.013 28.2 101.146 28.2533 101.253 28.36C101.359 28.4667 101.406 28.5933 101.393 28.74C101.339 29.1 101.139 29.4733 100.793 29.86C100.459 30.2333 99.9727 30.5533 99.3327 30.82C98.706 31.0733 97.9527 31.2 97.0727 31.2C96.2193 31.2 95.4593 31.0067 94.7927 30.62C94.126 30.22 93.5927 29.6733 93.1927 28.98C92.806 28.2867 92.5727 27.5067 92.4927 26.64C92.466 26.24 92.4527 25.9333 92.4527 25.72C92.4527 25.5067 92.466 25.2 92.4927 24.8C92.5727 23.9733 92.806 23.2267 93.1927 22.56C93.5927 21.8933 94.1193 21.3667 94.7727 20.98C95.4393 20.5933 96.206 20.4 97.0727 20.4ZM99.8927 24.86V24.8C99.8927 23.9867 99.6327 23.34 99.1127 22.86C98.606 22.3667 97.926 22.12 97.0727 22.12C96.2993 22.12 95.6393 22.3667 95.0927 22.86C94.5593 23.3533 94.286 24 94.2727 24.8V24.86H99.8927ZM104.505 25.86C104.359 25.86 104.232 25.8067 104.125 25.7C104.019 25.5933 103.965 25.4667 103.965 25.32V24.68C103.965 24.5333 104.019 24.4067 104.125 24.3C104.232 24.1933 104.359 24.14 104.505 24.14H110.405C110.552 24.14 110.679 24.1933 110.785 24.3C110.892 24.4067 110.945 24.5333 110.945 24.68V25.32C110.945 25.4667 110.892 25.5933 110.785 25.7C110.679 25.8067 110.552 25.86 110.405 25.86H104.505ZM115.413 25.68C115.453 26.8133 115.793 27.72 116.433 28.4C117.086 29.0667 117.993 29.4 119.153 29.4C120.326 29.4 121.193 29.1467 121.753 28.64C122.313 28.1333 122.686 27.48 122.872 26.68C122.899 26.5467 122.959 26.44 123.053 26.36C123.159 26.28 123.273 26.24 123.393 26.24H124.313C124.433 26.24 124.533 26.2867 124.613 26.38C124.706 26.46 124.753 26.56 124.753 26.68C124.726 27.3333 124.513 28.0133 124.113 28.72C123.713 29.4133 123.093 30 122.253 30.48C121.426 30.96 120.393 31.2 119.153 31.2C118.033 31.2 117.053 30.9667 116.213 30.5C115.373 30.0333 114.719 29.3933 114.253 28.58C113.799 27.7533 113.553 26.82 113.513 25.78C113.499 25.38 113.493 24.7867 113.493 24C113.493 23.2133 113.499 22.62 113.513 22.22C113.553 21.18 113.799 20.2533 114.253 19.44C114.719 18.6133 115.373 17.9667 116.213 17.5C117.053 17.0333 118.033 16.8 119.153 16.8C120.393 16.8 121.426 17.04 122.253 17.52C123.093 18 123.713 18.5933 124.113 19.3C124.513 19.9933 124.726 20.6667 124.753 21.32C124.753 21.44 124.706 21.5467 124.613 21.64C124.533 21.72 124.433 21.76 124.313 21.76H123.393C123.273 21.76 123.159 21.72 123.053 21.64C122.959 21.56 122.899 21.4533 122.872 21.32C122.686 20.52 122.313 19.8667 121.753 19.36C121.193 18.8533 120.326 18.6 119.153 18.6C117.993 18.6 117.086 18.94 116.433 19.62C115.793 20.2867 115.453 21.1867 115.413 22.32C115.399 22.72 115.393 23.28 115.393 24C115.393 24.72 115.399 25.28 115.413 25.68ZM128.972 30.46C128.972 30.6067 128.919 30.7333 128.812 30.84C128.706 30.9467 128.579 31 128.432 31H127.692C127.546 31 127.419 30.9467 127.312 30.84C127.206 30.7333 127.152 30.6067 127.152 30.46V17.34C127.152 17.1933 127.206 17.0667 127.312 16.96C127.419 16.8533 127.546 16.8 127.692 16.8H128.432C128.579 16.8 128.706 16.8533 128.812 16.96C128.919 17.0667 128.972 17.1933 128.972 17.34V30.46ZM140.977 24.86C141.003 25.1533 141.017 25.4733 141.017 25.82C141.017 26.14 141.003 26.4467 140.977 26.74C140.857 28.1 140.383 29.1867 139.557 30C138.743 30.8 137.637 31.2 136.237 31.2C134.837 31.2 133.723 30.8 132.897 30C132.083 29.1867 131.617 28.1 131.497 26.74C131.483 26.5933 131.477 26.2867 131.477 25.82C131.477 25.3267 131.483 25.0067 131.497 24.86C131.603 23.5 132.07 22.42 132.897 21.62C133.723 20.8067 134.837 20.4 136.237 20.4C137.637 20.4 138.75 20.8067 139.577 21.62C140.403 22.42 140.87 23.5 140.977 24.86ZM139.157 24.96C139.077 24.1067 138.79 23.42 138.297 22.9C137.817 22.38 137.13 22.12 136.237 22.12C135.343 22.12 134.65 22.38 134.157 22.9C133.677 23.42 133.397 24.1067 133.317 24.96C133.303 25.12 133.297 25.4067 133.297 25.82C133.297 26.22 133.303 26.4933 133.317 26.64C133.397 27.4933 133.677 28.18 134.157 28.7C134.65 29.22 135.343 29.48 136.237 29.48C137.13 29.48 137.817 29.22 138.297 28.7C138.79 28.18 139.077 27.4933 139.157 26.64C139.183 26.3467 139.197 26.0733 139.197 25.82C139.197 25.5667 139.183 25.28 139.157 24.96ZM143.42 21.14C143.42 20.9933 143.473 20.8667 143.58 20.76C143.686 20.6533 143.813 20.6 143.96 20.6H144.7C144.846 20.6 144.973 20.6533 145.08 20.76C145.186 20.8667 145.24 20.9933 145.24 21.14V26.42C145.24 27.4333 145.466 28.2 145.92 28.72C146.386 29.2267 147.06 29.48 147.94 29.48C148.793 29.48 149.453 29.22 149.92 28.7C150.4 28.18 150.64 27.42 150.64 26.42V21.14C150.64 20.9933 150.693 20.8667 150.8 20.76C150.906 20.6533 151.033 20.6 151.18 20.6H151.92C152.066 20.6 152.193 20.6533 152.3 20.76C152.406 20.8667 152.46 20.9933 152.46 21.14V30.46C152.46 30.6067 152.406 30.7333 152.3 30.84C152.193 30.9467 152.066 31 151.92 31H151.18C151.033 31 150.906 30.9467 150.8 30.84C150.693 30.7333 150.64 30.6067 150.64 30.46V29.84C149.946 30.7467 148.946 31.2 147.64 31.2C146.36 31.2 145.333 30.8 144.56 30C143.8 29.2 143.42 28.1067 143.42 26.72V21.14ZM162.593 17.34C162.593 17.1933 162.646 17.0667 162.753 16.96C162.86 16.8533 162.986 16.8 163.133 16.8H163.873C164.02 16.8 164.146 16.8533 164.253 16.96C164.36 17.0667 164.413 17.1933 164.413 17.34V30.46C164.413 30.6067 164.36 30.7333 164.253 30.84C164.146 30.9467 164.02 31 163.873 31H163.133C162.986 31 162.86 30.9467 162.753 30.84C162.646 30.7333 162.593 30.6067 162.593 30.46V29.84C161.913 30.7467 160.88 31.2 159.493 31.2C158.666 31.2 157.913 31.0067 157.233 30.62C156.566 30.2333 156.026 29.68 155.613 28.96C155.213 28.24 154.993 27.4 154.953 26.44L154.933 25.78L154.953 25.14C154.993 24.18 155.213 23.3467 155.613 22.64C156.026 21.92 156.566 21.3667 157.233 20.98C157.9 20.5933 158.653 20.4 159.493 20.4C160.24 20.4 160.866 20.5333 161.373 20.8C161.893 21.0533 162.3 21.3733 162.593 21.76V17.34ZM162.593 25.08C162.553 24.1467 162.273 23.42 161.753 22.9C161.233 22.38 160.546 22.12 159.693 22.12C158.826 22.12 158.133 22.4 157.613 22.96C157.106 23.52 156.826 24.28 156.773 25.24L156.753 25.8L156.773 26.36C156.826 27.32 157.106 28.08 157.613 28.64C158.133 29.2 158.826 29.48 159.693 29.48C160.52 29.48 161.2 29.2267 161.733 28.72C162.266 28.2 162.553 27.5133 162.593 26.66C162.606 26.5267 162.613 26.26 162.613 25.86C162.613 25.4733 162.606 25.2133 162.593 25.08Z" fill="#F8F9FA"/>
<path d="M24 42.6667C19.9059 42.6667 16.9412 34.3333 16.9412 24C16.9412 13.6667 19.9059 5.33333 24 5.33333C28.0941 5.33333 31.0588 13.6667 31.0588 24C31.0588 34.3333 28.0941 42.6667 24 42.6667ZM24 41.3333C26.8941 41.3333 29.647 33.6 29.647 24C29.647 14.4 26.8941 6.66667 24 6.66667C21.1059 6.66667 18.3529 14.4 18.3529 24C18.3529 33.6 21.1059 41.3333 24 41.3333Z" fill="#F8F9FA"/>
<path d="M6.91763 33.3333C4.79999 30 11.0118 23.4 20.4706 18.2C29.9294 13 39.0353 11.3333 41.0823 14.6667C43.1294 18 36.9882 24.6 27.5294 29.8C18.0706 35 8.96469 36.6667 6.91763 33.3333ZM8.11763 32.6667C9.59999 35.0667 18.0706 33.4 26.8235 28.6C35.5765 23.8 41.3647 17.7333 39.8823 15.3333C38.4 12.9333 29.9294 14.6 21.1765 19.4C12.4235 24.2 6.63528 30.2667 8.11763 32.6667Z" fill="#F8F9FA"/>
<path d="M41.0824 33.3333C39.0353 36.6667 29.8588 34.9333 20.4706 29.8C11.0824 24.6667 4.80002 18 6.91767 14.6667C9.03531 11.3333 18.1412 13.0667 27.5294 18.2C36.9177 23.3333 43.2 30 41.0824 33.3333ZM39.8824 32.6667C41.3647 30.2667 35.5765 24.2 26.8235 19.4C18.0706 14.6 9.52943 12.9333 8.11767 15.3333C6.7059 17.7333 12.4235 23.8 21.1765 28.6C29.9294 33.4 38.4706 35.0667 39.8824 32.6667Z" fill="#F8F9FA"/>
<path d="M24 27.3333C22.0235 27.3333 20.4706 25.8667 20.4706 24C20.4706 22.1333 22.0235 20.6667 24 20.6667C25.9765 20.6667 27.5294 22.1333 27.5294 24C27.5294 25.8667 25.9765 27.3333 24 27.3333ZM13.4118 15.6667C12.2118 15.6667 11.2941 14.8 11.2941 13.6667C11.2941 12.5333 12.2118 11.6667 13.4118 11.6667C14.6118 11.6667 15.5294 12.5333 15.5294 13.6667C15.5294 14.8 14.6118 15.6667 13.4118 15.6667ZM19.7647 39.3333C18.5647 39.3333 17.6471 38.4667 17.6471 37.3333C17.6471 36.2 18.5647 35.3333 19.7647 35.3333C20.9647 35.3333 21.8824 36.2 21.8824 37.3333C21.8824 38.4667 20.9647 39.3333 19.7647 39.3333ZM39.5294 21.3333C38.3294 21.3333 37.4118 20.4667 37.4118 19.3333C37.4118 18.2 38.3294 17.3333 39.5294 17.3333C40.7294 17.3333 41.6471 18.2 41.6471 19.3333C41.6471 20.4667 40.7294 21.3333 39.5294 21.3333Z" fill="#60A5FA"/>
</svg>
