<svg width="122" height="32" viewBox="0 0 122 32" fill="none" xmlns="http://www.w3.org/2000/svg">
<path d="M44.325 13.065C44.335 13.155 44.305 13.235 44.235 13.305C44.165 13.365 44.085 13.395 43.995 13.395H43.38C43.26 13.395 43.17 13.375 43.11 13.335C43.05 13.285 42.985 13.195 42.915 13.065C42.755 12.755 42.475 12.45 42.075 12.15C41.685 11.85 41.165 11.7 40.515 11.7C39.915 11.7 39.405 11.835 38.985 12.105C38.575 12.375 38.37 12.76 38.37 13.26C38.37 13.6 38.47 13.88 38.67 14.1C38.88 14.31 39.19 14.495 39.6 14.655C40.02 14.805 40.65 14.99 41.49 15.21C42.63 15.51 43.435 15.88 43.905 16.32C44.385 16.75 44.625 17.34 44.625 18.09C44.625 18.69 44.455 19.22 44.115 19.68C43.785 20.14 43.315 20.5 42.705 20.76C42.095 21.02 41.39 21.15 40.59 21.15C39.85 21.15 39.175 21.01 38.565 20.73C37.955 20.45 37.475 20.095 37.125 19.665C36.775 19.225 36.59 18.79 36.57 18.36C36.57 18.27 36.6 18.195 36.66 18.135C36.73 18.065 36.81 18.03 36.9 18.03H37.515C37.625 18.03 37.715 18.055 37.785 18.105C37.855 18.145 37.92 18.23 37.98 18.36C38.14 18.72 38.43 19.05 38.85 19.35C39.28 19.65 39.86 19.8 40.59 19.8C41.32 19.8 41.935 19.645 42.435 19.335C42.945 19.015 43.2 18.6 43.2 18.09C43.2 17.76 43.065 17.485 42.795 17.265C42.535 17.035 42.175 16.845 41.715 16.695C41.255 16.535 40.58 16.34 39.69 16.11C38.72 15.86 38.02 15.5 37.59 15.03C37.16 14.55 36.945 13.96 36.945 13.26C36.945 12.74 37.08 12.26 37.35 11.82C37.62 11.38 38.025 11.025 38.565 10.755C39.105 10.485 39.755 10.35 40.515 10.35C41.275 10.35 41.94 10.5 42.51 10.8C43.08 11.09 43.52 11.45 43.83 11.88C44.14 12.31 44.305 12.705 44.325 13.065ZM48.4375 18.375C48.4375 18.805 48.5225 19.135 48.6925 19.365C48.8725 19.595 49.2075 19.71 49.6975 19.71H50.4925C50.6025 19.71 50.6975 19.75 50.7775 19.83C50.8575 19.91 50.8975 20.005 50.8975 20.115V20.595C50.8975 20.705 50.8575 20.8 50.7775 20.88C50.6975 20.96 50.6025 21 50.4925 21H49.5475C48.6975 21 48.0725 20.78 47.6725 20.34C47.2725 19.89 47.0725 19.235 47.0725 18.375V14.49H45.9625C45.8525 14.49 45.7575 14.45 45.6775 14.37C45.5975 14.29 45.5575 14.195 45.5575 14.085V13.605C45.5575 13.495 45.5975 13.4 45.6775 13.32C45.7575 13.24 45.8525 13.2 45.9625 13.2H47.0725V10.755C47.0725 10.645 47.1125 10.55 47.1925 10.47C47.2725 10.39 47.3675 10.35 47.4775 10.35H48.0325C48.1425 10.35 48.2375 10.39 48.3175 10.47C48.3975 10.55 48.4375 10.645 48.4375 10.755V13.2H50.3425C50.4525 13.2 50.5475 13.24 50.6275 13.32C50.7075 13.4 50.7475 13.495 50.7475 13.605V14.085C50.7475 14.195 50.7075 14.29 50.6275 14.37C50.5475 14.45 50.4525 14.49 50.3425 14.49H48.4375V18.375ZM59.1533 16.395C59.1733 16.615 59.1833 16.855 59.1833 17.115C59.1833 17.355 59.1733 17.585 59.1533 17.805C59.0633 18.825 58.7083 19.64 58.0883 20.25C57.4783 20.85 56.6483 21.15 55.5983 21.15C54.5483 21.15 53.7133 20.85 53.0933 20.25C52.4833 19.64 52.1333 18.825 52.0433 17.805C52.0333 17.695 52.0283 17.465 52.0283 17.115C52.0283 16.745 52.0333 16.505 52.0433 16.395C52.1233 15.375 52.4733 14.565 53.0933 13.965C53.7133 13.355 54.5483 13.05 55.5983 13.05C56.6483 13.05 57.4833 13.355 58.1033 13.965C58.7233 14.565 59.0733 15.375 59.1533 16.395ZM57.7883 16.47C57.7283 15.83 57.5133 15.315 57.1433 14.925C56.7833 14.535 56.2683 14.34 55.5983 14.34C54.9283 14.34 54.4083 14.535 54.0383 14.925C53.6783 15.315 53.4683 15.83 53.4083 16.47C53.3983 16.59 53.3933 16.805 53.3933 17.115C53.3933 17.415 53.3983 17.62 53.4083 17.73C53.4683 18.37 53.6783 18.885 54.0383 19.275C54.4083 19.665 54.9283 19.86 55.5983 19.86C56.2683 19.86 56.7833 19.665 57.1433 19.275C57.5133 18.885 57.7283 18.37 57.7883 17.73C57.8083 17.51 57.8183 17.305 57.8183 17.115C57.8183 16.925 57.8083 16.71 57.7883 16.47ZM65.0205 13.2C65.1305 13.2 65.2255 13.24 65.3055 13.32C65.3855 13.4 65.4255 13.495 65.4255 13.605V14.085C65.4255 14.195 65.3855 14.29 65.3055 14.37C65.2255 14.45 65.1305 14.49 65.0205 14.49H64.1505C63.5905 14.49 63.1605 14.64 62.8605 14.94C62.5705 15.23 62.4255 15.655 62.4255 16.215V20.595C62.4255 20.705 62.3855 20.8 62.3055 20.88C62.2255 20.96 62.1305 21 62.0205 21H61.4655C61.3555 21 61.2605 20.96 61.1805 20.88C61.1005 20.8 61.0605 20.705 61.0605 20.595V13.605C61.0605 13.495 61.1005 13.4 61.1805 13.32C61.2605 13.24 61.3555 13.2 61.4655 13.2H62.0205C62.1305 13.2 62.2255 13.24 62.3055 13.32C62.3855 13.4 62.4255 13.495 62.4255 13.605V14.07C62.6255 13.77 62.8655 13.55 63.1455 13.41C63.4255 13.27 63.7905 13.2 64.2405 13.2H65.0205ZM69.8045 13.05C70.8745 13.05 71.7195 13.39 72.3395 14.07C72.9595 14.75 73.2695 15.675 73.2695 16.845V17.25C73.2695 17.36 73.2295 17.455 73.1495 17.535C73.0695 17.615 72.9745 17.655 72.8645 17.655H67.7045V17.745C67.7245 18.405 67.9245 18.925 68.3045 19.305C68.6945 19.675 69.1945 19.86 69.8045 19.86C70.3045 19.86 70.6895 19.795 70.9595 19.665C71.2395 19.535 71.4895 19.35 71.7095 19.11C71.7895 19.03 71.8595 18.975 71.9195 18.945C71.9895 18.915 72.0795 18.9 72.1895 18.9H72.6395C72.7595 18.9 72.8595 18.94 72.9395 19.02C73.0195 19.1 73.0545 19.195 73.0445 19.305C73.0045 19.575 72.8545 19.855 72.5945 20.145C72.3445 20.425 71.9795 20.665 71.4995 20.865C71.0295 21.055 70.4645 21.15 69.8045 21.15C69.1645 21.15 68.5945 21.005 68.0945 20.715C67.5945 20.415 67.1945 20.005 66.8945 19.485C66.6045 18.965 66.4295 18.38 66.3695 17.73C66.3495 17.43 66.3395 17.2 66.3395 17.04C66.3395 16.88 66.3495 16.65 66.3695 16.35C66.4295 15.73 66.6045 15.17 66.8945 14.67C67.1945 14.17 67.5895 13.775 68.0795 13.485C68.5795 13.195 69.1545 13.05 69.8045 13.05ZM71.9195 16.395V16.35C71.9195 15.74 71.7245 15.255 71.3345 14.895C70.9545 14.525 70.4445 14.34 69.8045 14.34C69.2245 14.34 68.7295 14.525 68.3195 14.895C67.9195 15.265 67.7145 15.75 67.7045 16.35V16.395H71.9195ZM75.3791 17.145C75.2691 17.145 75.1741 17.105 75.0941 17.025C75.0141 16.945 74.9741 16.85 74.9741 16.74V16.26C74.9741 16.15 75.0141 16.055 75.0941 15.975C75.1741 15.895 75.2691 15.855 75.3791 15.855H79.8041C79.9141 15.855 80.0091 15.895 80.0891 15.975C80.1691 16.055 80.2091 16.15 80.2091 16.26V16.74C80.2091 16.85 80.1691 16.945 80.0891 17.025C80.0091 17.105 79.9141 17.145 79.8041 17.145H75.3791ZM83.5594 17.01C83.5894 17.86 83.8444 18.54 84.3244 19.05C84.8144 19.55 85.4944 19.8 86.3644 19.8C87.2444 19.8 87.8944 19.61 88.3144 19.23C88.7344 18.85 89.0144 18.36 89.1544 17.76C89.1744 17.66 89.2194 17.58 89.2894 17.52C89.3694 17.46 89.4544 17.43 89.5444 17.43H90.2344C90.3244 17.43 90.3994 17.465 90.4594 17.535C90.5294 17.595 90.5644 17.67 90.5644 17.76C90.5444 18.25 90.3844 18.76 90.0844 19.29C89.7844 19.81 89.3194 20.25 88.6894 20.61C88.0694 20.97 87.2944 21.15 86.3644 21.15C85.5244 21.15 84.7894 20.975 84.1594 20.625C83.5294 20.275 83.0394 19.795 82.6894 19.185C82.3494 18.565 82.1644 17.865 82.1344 17.085C82.1244 16.785 82.1194 16.34 82.1194 15.75C82.1194 15.16 82.1244 14.715 82.1344 14.415C82.1644 13.635 82.3494 12.94 82.6894 12.33C83.0394 11.71 83.5294 11.225 84.1594 10.875C84.7894 10.525 85.5244 10.35 86.3644 10.35C87.2944 10.35 88.0694 10.53 88.6894 10.89C89.3194 11.25 89.7844 11.695 90.0844 12.225C90.3844 12.745 90.5444 13.25 90.5644 13.74C90.5644 13.83 90.5294 13.91 90.4594 13.98C90.3994 14.04 90.3244 14.07 90.2344 14.07H89.5444C89.4544 14.07 89.3694 14.04 89.2894 13.98C89.2194 13.92 89.1744 13.84 89.1544 13.74C89.0144 13.14 88.7344 12.65 88.3144 12.27C87.8944 11.89 87.2444 11.7 86.3644 11.7C85.4944 11.7 84.8144 11.955 84.3244 12.465C83.8444 12.965 83.5894 13.64 83.5594 14.49C83.5494 14.79 83.5444 15.21 83.5444 15.75C83.5444 16.29 83.5494 16.71 83.5594 17.01ZM93.7293 20.595C93.7293 20.705 93.6893 20.8 93.6093 20.88C93.5293 20.96 93.4343 21 93.3243 21H92.7693C92.6593 21 92.5643 20.96 92.4843 20.88C92.4043 20.8 92.3643 20.705 92.3643 20.595V10.755C92.3643 10.645 92.4043 10.55 92.4843 10.47C92.5643 10.39 92.6593 10.35 92.7693 10.35H93.3243C93.4343 10.35 93.5293 10.39 93.6093 10.47C93.6893 10.55 93.7293 10.645 93.7293 10.755V20.595ZM102.732 16.395C102.752 16.615 102.762 16.855 102.762 17.115C102.762 17.355 102.752 17.585 102.732 17.805C102.642 18.825 102.287 19.64 101.667 20.25C101.057 20.85 100.227 21.15 99.1774 21.15C98.1274 21.15 97.2924 20.85 96.6724 20.25C96.0624 19.64 95.7124 18.825 95.6224 17.805C95.6124 17.695 95.6074 17.465 95.6074 17.115C95.6074 16.745 95.6124 16.505 95.6224 16.395C95.7024 15.375 96.0524 14.565 96.6724 13.965C97.2924 13.355 98.1274 13.05 99.1774 13.05C100.227 13.05 101.062 13.355 101.682 13.965C102.302 14.565 102.652 15.375 102.732 16.395ZM101.367 16.47C101.307 15.83 101.092 15.315 100.722 14.925C100.362 14.535 99.8474 14.34 99.1774 14.34C98.5074 14.34 97.9874 14.535 97.6174 14.925C97.2574 15.315 97.0474 15.83 96.9874 16.47C96.9774 16.59 96.9724 16.805 96.9724 17.115C96.9724 17.415 96.9774 17.62 96.9874 17.73C97.0474 18.37 97.2574 18.885 97.6174 19.275C97.9874 19.665 98.5074 19.86 99.1774 19.86C99.8474 19.86 100.362 19.665 100.722 19.275C101.092 18.885 101.307 18.37 101.367 17.73C101.387 17.51 101.397 17.305 101.397 17.115C101.397 16.925 101.387 16.71 101.367 16.47ZM104.565 13.605C104.565 13.495 104.605 13.4 104.685 13.32C104.765 13.24 104.86 13.2 104.97 13.2H105.525C105.635 13.2 105.73 13.24 105.81 13.32C105.89 13.4 105.93 13.495 105.93 13.605V17.565C105.93 18.325 106.1 18.9 106.44 19.29C106.79 19.67 107.295 19.86 107.955 19.86C108.595 19.86 109.09 19.665 109.44 19.275C109.8 18.885 109.98 18.315 109.98 17.565V13.605C109.98 13.495 110.02 13.4 110.1 13.32C110.18 13.24 110.275 13.2 110.385 13.2H110.94C111.05 13.2 111.145 13.24 111.225 13.32C111.305 13.4 111.345 13.495 111.345 13.605V20.595C111.345 20.705 111.305 20.8 111.225 20.88C111.145 20.96 111.05 21 110.94 21H110.385C110.275 21 110.18 20.96 110.1 20.88C110.02 20.8 109.98 20.705 109.98 20.595V20.13C109.46 20.81 108.71 21.15 107.73 21.15C106.77 21.15 106 20.85 105.42 20.25C104.85 19.65 104.565 18.83 104.565 17.79V13.605ZM118.945 10.755C118.945 10.645 118.985 10.55 119.065 10.47C119.145 10.39 119.24 10.35 119.35 10.35H119.905C120.015 10.35 120.11 10.39 120.19 10.47C120.27 10.55 120.31 10.645 120.31 10.755V20.595C120.31 20.705 120.27 20.8 120.19 20.88C120.11 20.96 120.015 21 119.905 21H119.35C119.24 21 119.145 20.96 119.065 20.88C118.985 20.8 118.945 20.705 118.945 20.595V20.13C118.435 20.81 117.66 21.15 116.62 21.15C116 21.15 115.435 21.005 114.925 20.715C114.425 20.425 114.02 20.01 113.71 19.47C113.41 18.93 113.245 18.3 113.215 17.58L113.2 17.085L113.215 16.605C113.245 15.885 113.41 15.26 113.71 14.73C114.02 14.19 114.425 13.775 114.925 13.485C115.425 13.195 115.99 13.05 116.62 13.05C117.18 13.05 117.65 13.15 118.03 13.35C118.42 13.54 118.725 13.78 118.945 14.07V10.755ZM118.945 16.56C118.915 15.86 118.705 15.315 118.315 14.925C117.925 14.535 117.41 14.34 116.77 14.34C116.12 14.34 115.6 14.55 115.21 14.97C114.83 15.39 114.62 15.96 114.58 16.68L114.565 17.1L114.58 17.52C114.62 18.24 114.83 18.81 115.21 19.23C115.6 19.65 116.12 19.86 116.77 19.86C117.39 19.86 117.9 19.67 118.3 19.29C118.7 18.9 118.915 18.385 118.945 17.745C118.955 17.645 118.96 17.445 118.96 17.145C118.96 16.855 118.955 16.66 118.945 16.56Z" fill="#F8F9FA"/>
<path d="M16 30C13.1 30 11 23.75 11 16C11 8.25 13.1 2 16 2C18.9 2 21 8.25 21 16C21 23.75 18.9 30 16 30ZM16 29C18.05 29 20 23.2 20 16C20 8.8 18.05 3 16 3C13.95 3 12 8.8 12 16C12 23.2 13.95 29 16 29Z" fill="#F8F9FA"/>
<path d="M3.9 23C2.4 20.5 6.8 15.55 13.5 11.65C20.2 7.75 26.65 6.5 28.1 9C29.55 11.5 25.2 16.45 18.5 20.35C11.8 24.25 5.35 25.5 3.9 23ZM4.75 22.5C5.8 24.3 11.8 23.05 18 19.45C24.2 15.85 28.3 11.3 27.25 9.5C26.2 7.7 20.2 8.95 14 12.55C7.8 16.15 3.7 20.7 4.75 22.5Z" fill="#F8F9FA"/>
<path d="M28.1 23C26.65 25.5 20.15 24.2 13.5 20.35C6.85001 16.5 2.40001 11.5 3.90001 9C5.40001 6.5 11.85 7.8 18.5 11.65C25.15 15.5 29.6 20.5 28.1 23ZM27.25 22.5C28.3 20.7 24.2 16.15 18 12.55C11.8 8.95 5.75001 7.7 4.75001 9.5C3.75001 11.3 7.80001 15.85 14 19.45C20.2 23.05 26.25 24.3 27.25 22.5Z" fill="#F8F9FA"/>
<path d="M16 18.5C14.6 18.5 13.5 17.4 13.5 16C13.5 14.6 14.6 13.5 16 13.5C17.4 13.5 18.5 14.6 18.5 16C18.5 17.4 17.4 18.5 16 18.5ZM8.5 9.75C7.65 9.75 7 9.1 7 8.25C7 7.4 7.65 6.75 8.5 6.75C9.35 6.75 10 7.4 10 8.25C10 9.1 9.35 9.75 8.5 9.75ZM13 27.5C12.15 27.5 11.5 26.85 11.5 26C11.5 25.15 12.15 24.5 13 24.5C13.85 24.5 14.5 25.15 14.5 26C14.5 26.85 13.85 27.5 13 27.5ZM27 14C26.15 14 25.5 13.35 25.5 12.5C25.5 11.65 26.15 11 27 11C27.85 11 28.5 11.65 28.5 12.5C28.5 13.35 27.85 14 27 14Z" fill="#60A5FA"/>
</svg>
